<svg xmlns="http://www.w3.org/2000/svg" viewBox="0 0 150.86 216.1"><defs><style>.cls-1{fill:#fff;}</style></defs><g id="Layer_2" data-name="Layer 2"><g id="Layer_4" data-name="Layer 4"><polygon class="cls-1" points="77.3 180.41 77.33 180.27 12.48 180.27 12.48 54.38 76.5 54.38 83.36 41.89 0 41.89 0 192.75 78.77 192.75 77.3 180.41"/><polygon class="cls-1" points="103.32 41.89 100.2 54.38 138.38 54.38 138.38 180.27 97.51 180.27 94.36 192.75 150.86 192.75 150.86 41.89 103.32 41.89"/><polygon class="cls-1" points="121.08 72.79 106.76 78.22 96.33 119.28 78.66 126.47 110.29 0 56.14 98.44 45.8 61.03 22.43 154.06 36.7 148.64 46.05 111.97 51.71 131.91 73.64 95.27 53.8 172.76 68.48 167.19 75.07 140.85 92.61 133.96 80.75 180.63 84.97 216.1 107.1 128.26 127.27 120.34 131.2 105.08 110.86 113.36 121.08 72.79"/></g></g></svg>